<svg width="16" height="16" viewBox="0 0 16 16" fill="none" xmlns="http://www.w3.org/2000/svg">
  <path d="M8 0C3.58 0 0 3.58 0 8C0 11.54 2.29 14.63 5.47 15.75C5.87 15.83 6 15.6 6 15.41V14.09C3.78 14.54 3.3 13.25 3.3 13.25C2.91 12.28 2.33 12.03 2.33 12.03C1.57 11.58 2.4 11.59 2.4 11.59C3.25 11.64 3.67 12.41 3.67 12.41C4.41 13.64 5.63 13.26 6.08 13.04C6.16 12.47 6.39 12.09 6.63 11.88C4.82 11.67 2.91 10.96 2.91 7.82C2.91 6.93 3.24 6.22 3.78 5.66C3.7 5.45 3.4 4.6 3.87 3.46C3.87 3.46 4.56 3.24 6 4.3C6.66 4.1 7.36 4 8.06 4C8.76 4 9.46 4.1 10.12 4.3C11.56 3.24 12.25 3.46 12.25 3.46C12.72 4.6 12.42 5.45 12.34 5.66C12.88 6.22 13.21 6.93 13.21 7.82C13.21 10.97 11.29 11.66 9.47 11.86C9.79 12.14 10.07 12.67 10.07 13.46V15.41C10.07 15.6 10.2 15.83 10.6 15.75C13.71 14.63 16 11.54 16 8C16 3.58 12.42 0 8 0Z" fill="white"/>
</svg>
